<svg xmlns="http://www.w3.org/2000/svg" viewBox="0 0 128 128">
  <defs>
    <linearGradient id="favTerracotta" x1="0%" y1="0%" x2="0%" y2="100%">
      <stop offset="0%" stopColor="#8A3D1C" />
      <stop offset="100%" stopColor="#63250D" />
    </linearGradient>
    <linearGradient id="favLeaf" x1="0%" y1="100%" x2="100%" y2="0%">
      <stop offset="0%" stopColor="#24491F" />
      <stop offset="100%" stopColor="#4D8241" />
    </linearGradient>
  </defs>

  <!-- Circular background -->
  <circle cx="64" cy="64" r="61" fill="#FAF8F2" stroke="#254821" stroke-width="4.5" />

  <!-- The letter K -->
  <!-- Left stem -->
  <path d="M 40 33 C 35 32, 31 36, 30 43 C 29 49, 31 54, 34 58 L 38 91 C 38 96, 32 98, 29 98 L 29 101 L 55 101 L 55 98 C 50 97, 47 94, 47 90 L 47 45 C 47 39, 52 37, 55 37 L 55 34 C 50 33, 44 33, 40 33 Z" fill="url(#favTerracotta)" />

  <!-- Lower leg with organic sweep -->
  <path d="M 46 66 L 68 94 C 74 100, 83 102, 94 102 C 84 101, 74 96, 67 86 L 50 64 Z" fill="url(#favTerracotta)" />

  <!-- Upper branch: Leaf in Green -->
  <path d="M 47 64 C 45 58, 47 48, 52 38 C 58 27, 68 18, 80 8 C 80 13, 77 20, 72 27 C 65 38, 57 48, 51 59 C 49 63, 47 64, 47 64 Z" fill="url(#favLeaf)" />
  <path d="M 48 62 C 55 46, 66 30, 79 10" stroke="#1D3A19" stroke-width="1.8" stroke-linecap="round" />
</svg>
